G75*
%MOIN*%
%OFA0B0*%
%FSLAX24Y24*%
%IPPOS*%
%LPD*%
%AMOC8*
5,1,8,0,0,1.08239X$1,22.5*
%
%ADD10C,0.0000*%
%ADD11C,0.0040*%
%ADD12C,0.0050*%
%ADD13C,0.0060*%
%ADD14R,0.0340X0.0240*%
%ADD15R,0.0240X0.0340*%
%ADD16C,0.0010*%
%ADD17C,0.0100*%
%ADD18C,0.0080*%
%ADD19C,0.0030*%
%ADD20R,0.0100X0.0950*%
%ADD21R,0.0400X0.0650*%
%ADD22R,0.7300X0.0300*%
%ADD23R,1.2200X0.0200*%
%ADD24R,0.0320X0.2850*%
%ADD25R,0.0320X0.1850*%
%ADD26C,0.0070*%
%ADD27C,0.0120*%
D10*
X000100Y001819D02*
X000100Y015315D01*
X039120Y015315D01*
X039120Y001819D01*
X000100Y001819D01*
D11*
X001217Y004339D02*
X001063Y004492D01*
X001063Y004646D01*
X001217Y004799D01*
X001447Y004646D02*
X001370Y004569D01*
X001370Y004415D01*
X001447Y004339D01*
X001677Y004339D01*
X001830Y004339D02*
X001984Y004492D01*
X001984Y004646D01*
X001830Y004799D01*
X001677Y004646D02*
X001447Y004646D01*
X001370Y005089D02*
X001063Y005089D01*
X001370Y005396D01*
X001370Y005472D01*
X001293Y005549D01*
X001140Y005549D01*
X001063Y005472D01*
X001524Y005472D02*
X001600Y005549D01*
X001754Y005549D01*
X001830Y005472D01*
X001524Y005165D01*
X001600Y005089D01*
X001754Y005089D01*
X001830Y005165D01*
X001830Y005472D01*
X001984Y005396D02*
X002137Y005549D01*
X002137Y005089D01*
X001984Y005089D02*
X002291Y005089D01*
X002444Y005165D02*
X002521Y005089D01*
X002674Y005089D01*
X002751Y005165D01*
X002751Y005319D01*
X002674Y005396D01*
X002598Y005396D01*
X002444Y005319D01*
X002444Y005549D01*
X002751Y005549D01*
X002905Y005319D02*
X003212Y005319D01*
X003365Y005472D02*
X003365Y005165D01*
X003672Y005472D01*
X003672Y005165D01*
X003595Y005089D01*
X003442Y005089D01*
X003365Y005165D01*
X003825Y005089D02*
X004132Y005089D01*
X003979Y005089D02*
X003979Y005549D01*
X003825Y005396D01*
X003672Y005472D02*
X003595Y005549D01*
X003442Y005549D01*
X003365Y005472D01*
X003365Y005839D02*
X003672Y006146D01*
X003365Y006146D02*
X003672Y005839D01*
X003212Y005839D02*
X002905Y006146D01*
X002751Y006069D02*
X002751Y005915D01*
X002674Y005839D01*
X002521Y005839D01*
X002444Y005915D01*
X002444Y006069D02*
X002598Y006146D01*
X002674Y006146D01*
X002751Y006069D01*
X002751Y006299D02*
X002444Y006299D01*
X002444Y006069D01*
X002291Y006069D02*
X001984Y006069D01*
X001830Y006299D02*
X001524Y006299D01*
X001677Y006299D02*
X001677Y005839D01*
X001370Y005839D02*
X001370Y006146D01*
X001217Y006299D01*
X001063Y006146D01*
X001063Y005839D01*
X001063Y006069D02*
X001370Y006069D01*
X001524Y005472D02*
X001524Y005165D01*
X002598Y004799D02*
X002828Y004799D01*
X002905Y004722D01*
X002905Y004415D01*
X002828Y004339D01*
X002598Y004339D01*
X002598Y004799D01*
X003058Y004799D02*
X003058Y004339D01*
X003365Y004339D01*
X003519Y004339D02*
X003825Y004646D01*
X003825Y004722D01*
X003749Y004799D01*
X003595Y004799D01*
X003519Y004722D01*
X003519Y004339D02*
X003825Y004339D01*
X003979Y004415D02*
X004056Y004339D01*
X004209Y004339D01*
X004286Y004415D01*
X004286Y004492D01*
X004209Y004569D01*
X004056Y004569D01*
X003979Y004646D01*
X003979Y004722D01*
X004056Y004799D01*
X004209Y004799D01*
X004286Y004722D01*
X004439Y004799D02*
X004670Y004799D01*
X004746Y004722D01*
X004746Y004646D01*
X004670Y004569D01*
X004439Y004569D01*
X004439Y004339D02*
X004439Y004799D01*
X004670Y004569D02*
X004746Y004492D01*
X004746Y004415D01*
X004670Y004339D01*
X004439Y004339D01*
X004900Y004339D02*
X004900Y004646D01*
X005053Y004799D01*
X005207Y004646D01*
X005207Y004339D01*
X005207Y004569D02*
X004900Y004569D01*
X005053Y005089D02*
X004746Y005089D01*
X005053Y005396D01*
X005053Y005472D01*
X004976Y005549D01*
X004823Y005549D01*
X004746Y005472D01*
X004593Y005319D02*
X004286Y005319D01*
X004286Y005839D02*
X004439Y005839D01*
X004363Y005839D02*
X004363Y006299D01*
X004439Y006299D02*
X004286Y006299D01*
X004593Y006146D02*
X004823Y006146D01*
X004900Y006069D01*
X004900Y005839D01*
X005130Y005915D02*
X005207Y005839D01*
X005130Y005915D02*
X005130Y006222D01*
X005053Y006146D02*
X005207Y006146D01*
X005360Y006069D02*
X005437Y006146D01*
X005590Y006146D01*
X005667Y006069D01*
X005667Y005992D01*
X005360Y005992D01*
X005360Y005915D02*
X005360Y006069D01*
X005360Y005915D02*
X005437Y005839D01*
X005590Y005839D01*
X005821Y005839D02*
X005821Y006146D01*
X005974Y006146D02*
X005821Y005992D01*
X005974Y006146D02*
X006051Y006146D01*
X006204Y006069D02*
X006358Y006069D01*
X006281Y006222D02*
X006281Y005839D01*
X006511Y005915D02*
X006588Y005992D01*
X006818Y005992D01*
X006818Y006069D02*
X006818Y005839D01*
X006588Y005839D01*
X006511Y005915D01*
X006588Y006146D02*
X006741Y006146D01*
X006818Y006069D01*
X006971Y006069D02*
X006971Y005915D01*
X007048Y005839D01*
X007278Y005839D01*
X007432Y005915D02*
X007432Y006069D01*
X007509Y006146D01*
X007662Y006146D01*
X007739Y006069D01*
X007739Y005992D01*
X007432Y005992D01*
X007432Y005915D02*
X007509Y005839D01*
X007662Y005839D01*
X007278Y006146D02*
X007048Y006146D01*
X006971Y006069D01*
X006358Y006299D02*
X006281Y006222D01*
X005514Y005472D02*
X005437Y005549D01*
X005283Y005549D01*
X005207Y005472D01*
X005514Y005472D02*
X005514Y005396D01*
X005207Y005089D01*
X005514Y005089D01*
X004593Y005839D02*
X004593Y006146D01*
X003212Y006146D02*
X002905Y005839D01*
X008353Y005839D02*
X008506Y005839D01*
X008429Y005839D02*
X008429Y006299D01*
X008353Y006299D02*
X008506Y006299D01*
X008660Y006299D02*
X008660Y005992D01*
X008813Y005839D01*
X008967Y005992D01*
X008967Y006299D01*
X019660Y008339D02*
X019967Y008339D01*
X019813Y008339D02*
X019813Y008799D01*
X019660Y008646D01*
X026120Y008299D02*
X026120Y007839D01*
X026350Y007839D01*
X026427Y007915D01*
X026427Y008222D01*
X026350Y008299D01*
X026120Y008299D01*
X026580Y008222D02*
X026580Y008146D01*
X026657Y008069D01*
X026811Y008069D01*
X026887Y007992D01*
X026887Y007915D01*
X026811Y007839D01*
X026657Y007839D01*
X026580Y007915D01*
X027041Y007915D02*
X027041Y008069D01*
X027271Y008069D01*
X027348Y007992D01*
X027348Y007915D01*
X027271Y007839D01*
X027118Y007839D01*
X027041Y007915D01*
X027041Y008069D02*
X027194Y008222D01*
X027348Y008299D01*
X026887Y008222D02*
X026811Y008299D01*
X026657Y008299D01*
X026580Y008222D01*
X028620Y008299D02*
X028620Y007839D01*
X028620Y008069D02*
X028773Y008069D01*
X028620Y008299D02*
X028927Y008299D01*
X029080Y008299D02*
X029234Y008299D01*
X029157Y008299D02*
X029157Y007839D01*
X029080Y007839D02*
X029234Y007839D01*
X029387Y007839D02*
X029694Y008146D01*
X029694Y008222D01*
X029618Y008299D01*
X029464Y008299D01*
X029387Y008222D01*
X029387Y007839D02*
X029694Y007839D01*
X031142Y008839D02*
X031142Y009299D01*
X031449Y009299D01*
X031603Y009299D02*
X031756Y009299D01*
X031679Y009299D02*
X031679Y008839D01*
X031603Y008839D02*
X031756Y008839D01*
X031910Y008839D02*
X032217Y008839D01*
X032063Y008839D02*
X032063Y009299D01*
X031910Y009146D01*
X031296Y009069D02*
X031142Y009069D01*
X032939Y009299D02*
X032939Y008839D01*
X033169Y008839D01*
X033246Y008915D01*
X033246Y009222D01*
X033169Y009299D01*
X032939Y009299D01*
X033399Y009222D02*
X033399Y009146D01*
X033476Y009069D01*
X033629Y009069D01*
X033706Y008992D01*
X033706Y008915D01*
X033629Y008839D01*
X033476Y008839D01*
X033399Y008915D01*
X033860Y008915D02*
X033860Y009069D01*
X034090Y009069D01*
X034167Y008992D01*
X034167Y008915D01*
X034090Y008839D01*
X033936Y008839D01*
X033860Y008915D01*
X033860Y009069D02*
X034013Y009222D01*
X034167Y009299D01*
X033706Y009222D02*
X033629Y009299D01*
X033476Y009299D01*
X033399Y009222D01*
X034449Y012339D02*
X034449Y012799D01*
X034526Y012569D02*
X034756Y012339D01*
X034910Y012339D02*
X035217Y012646D01*
X035217Y012722D01*
X035140Y012799D01*
X034986Y012799D01*
X034910Y012722D01*
X034756Y012799D02*
X034449Y012492D01*
X034910Y012339D02*
X035217Y012339D01*
X030217Y012339D02*
X029910Y012339D01*
X030063Y012339D02*
X030063Y012799D01*
X029910Y012646D01*
X029756Y012799D02*
X029449Y012492D01*
X029526Y012569D02*
X029756Y012339D01*
X029449Y012339D02*
X029449Y012799D01*
X022313Y003799D02*
X022313Y003339D01*
X022160Y003339D02*
X022467Y003339D01*
X022160Y003646D02*
X022313Y003799D01*
D12*
X023450Y002994D02*
X023450Y004643D01*
X024000Y004706D02*
X024000Y004864D01*
X025375Y004044D02*
X025675Y004044D01*
X025525Y004044D02*
X025525Y003594D01*
X025835Y003669D02*
X025910Y003594D01*
X026061Y003594D01*
X026136Y003669D01*
X026136Y003744D01*
X026061Y003819D01*
X025986Y003819D01*
X026061Y003819D02*
X026136Y003894D01*
X026136Y003969D01*
X026061Y004044D01*
X025910Y004044D01*
X025835Y003969D01*
X025103Y004129D02*
X025083Y004188D01*
X025060Y004245D01*
X025033Y004302D01*
X025002Y004356D01*
X024969Y004409D01*
X024932Y004459D01*
X024893Y004508D01*
X024850Y004553D01*
X024805Y004597D01*
X024758Y004637D01*
X024708Y004675D01*
X024656Y004710D01*
X024602Y004741D01*
X024547Y004769D01*
X024490Y004794D01*
X024431Y004815D01*
X024371Y004833D01*
X024310Y004848D01*
X024249Y004858D01*
X024187Y004865D01*
X024125Y004869D01*
X024062Y004868D01*
X024000Y004864D01*
X024000Y003931D02*
X024000Y003706D01*
X023450Y004644D02*
X023498Y004679D01*
X023548Y004712D01*
X023600Y004743D01*
X023654Y004770D01*
X023709Y004794D01*
X023766Y004814D01*
X023823Y004832D01*
X023881Y004846D01*
X023940Y004857D01*
X024000Y004864D01*
X025103Y003509D02*
X025083Y003449D01*
X025059Y003390D01*
X025031Y003333D01*
X025000Y003278D01*
X024965Y003224D01*
X024928Y003173D01*
X024887Y003124D01*
X024843Y003078D01*
X024797Y003034D01*
X024748Y002993D01*
X024697Y002955D01*
X024644Y002921D01*
X024588Y002889D01*
X024531Y002862D01*
X024472Y002837D01*
X024412Y002817D01*
X024351Y002799D01*
X024289Y002786D01*
X024226Y002777D01*
X024163Y002771D01*
X024099Y002769D01*
X024035Y002771D01*
X023972Y002777D01*
X023909Y002786D01*
X023847Y002800D01*
X023786Y002817D01*
X023726Y002838D01*
X023667Y002862D01*
X023610Y002890D01*
X023554Y002922D01*
X023501Y002957D01*
X023450Y002994D01*
X024000Y002931D02*
X024000Y002773D01*
X027450Y002994D02*
X027450Y004643D01*
X028000Y004706D02*
X028000Y004864D01*
X027386Y005144D02*
X027085Y005144D01*
X027386Y005444D01*
X027386Y005519D01*
X027311Y005594D01*
X027160Y005594D01*
X027085Y005519D01*
X026925Y005519D02*
X026925Y005369D01*
X026850Y005294D01*
X026625Y005294D01*
X026775Y005294D02*
X026925Y005144D01*
X026625Y005144D02*
X026625Y005594D01*
X026850Y005594D01*
X026925Y005519D01*
X026925Y006144D02*
X026775Y006294D01*
X026850Y006294D02*
X026625Y006294D01*
X026625Y006144D02*
X026625Y006594D01*
X026850Y006594D01*
X026925Y006519D01*
X026925Y006369D01*
X026850Y006294D01*
X027085Y006219D02*
X027085Y006144D01*
X027085Y006219D02*
X027386Y006519D01*
X027386Y006594D01*
X027085Y006594D01*
X026100Y006819D02*
X026100Y007819D01*
X029100Y007819D01*
X029100Y006819D01*
X026100Y006819D01*
X022825Y007538D02*
X022750Y007462D01*
X022825Y007538D02*
X022825Y007613D01*
X022750Y007688D01*
X022375Y007688D01*
X022375Y007613D02*
X022375Y007763D01*
X022375Y007923D02*
X022375Y008148D01*
X022450Y008223D01*
X022600Y008223D01*
X022675Y008148D01*
X022675Y007923D01*
X022825Y007923D02*
X022375Y007923D01*
X022450Y008383D02*
X022375Y008458D01*
X022375Y008608D01*
X022450Y008683D01*
X022525Y008683D01*
X022600Y008608D01*
X022675Y008683D01*
X022750Y008683D01*
X022825Y008608D01*
X022825Y008458D01*
X022750Y008383D01*
X022600Y008533D02*
X022600Y008608D01*
X023165Y010094D02*
X023465Y010094D01*
X023315Y010094D02*
X023315Y010544D01*
X023165Y010394D01*
X023240Y011144D02*
X023390Y011144D01*
X023465Y011219D01*
X023465Y011294D01*
X023390Y011369D01*
X023165Y011369D01*
X023165Y011219D01*
X023240Y011144D01*
X023165Y011369D02*
X023315Y011519D01*
X023465Y011594D01*
X025975Y011931D02*
X026050Y011856D01*
X025975Y011931D02*
X025975Y012081D01*
X026050Y012156D01*
X026125Y012156D01*
X026425Y011856D01*
X026425Y012156D01*
X026575Y012316D02*
X026425Y012466D01*
X026425Y012391D01*
X026350Y012391D01*
X026350Y012466D01*
X026425Y012466D01*
X026350Y012623D02*
X026425Y012698D01*
X026425Y012848D01*
X026350Y012923D01*
X026200Y012923D01*
X026125Y012848D01*
X026125Y012773D01*
X026200Y012623D01*
X025975Y012623D01*
X025975Y012923D01*
X026200Y013083D02*
X026200Y013383D01*
X026425Y013308D02*
X025975Y013308D01*
X026200Y013083D01*
X023465Y014269D02*
X023465Y014569D01*
X023390Y014644D01*
X023240Y014644D01*
X023165Y014569D01*
X023165Y014494D01*
X023240Y014419D01*
X023465Y014419D01*
X023465Y014269D02*
X023390Y014194D01*
X023240Y014194D01*
X023165Y014269D01*
X023004Y014269D02*
X022929Y014194D01*
X022779Y014194D01*
X022704Y014269D01*
X023004Y014569D01*
X023004Y014269D01*
X022704Y014269D02*
X022704Y014569D01*
X022779Y014644D01*
X022929Y014644D01*
X023004Y014569D01*
X022544Y014644D02*
X022544Y014194D01*
X022244Y014194D02*
X022244Y014644D01*
X022394Y014494D01*
X022544Y014644D01*
X017615Y011469D02*
X017540Y011544D01*
X017390Y011544D01*
X017315Y011469D01*
X017315Y011394D01*
X017390Y011319D01*
X017615Y011319D01*
X017615Y011169D02*
X017615Y011469D01*
X017615Y011169D02*
X017540Y011094D01*
X017390Y011094D01*
X017315Y011169D01*
X017315Y010544D02*
X017315Y010319D01*
X017465Y010394D01*
X017540Y010394D01*
X017615Y010319D01*
X017615Y010169D01*
X017540Y010094D01*
X017390Y010094D01*
X017315Y010169D01*
X017315Y010544D02*
X017615Y010544D01*
X015906Y008944D02*
X015906Y008494D01*
X015756Y008494D02*
X016056Y008494D01*
X015596Y008569D02*
X015596Y008869D01*
X015521Y008944D01*
X015296Y008944D01*
X015296Y008494D01*
X015521Y008494D01*
X015596Y008569D01*
X015756Y008794D02*
X015906Y008944D01*
X015136Y008944D02*
X014835Y008944D01*
X014835Y008494D01*
X015136Y008494D01*
X014986Y008719D02*
X014835Y008719D01*
X014675Y008494D02*
X014375Y008494D01*
X014375Y008944D01*
X018154Y007844D02*
X018154Y007394D01*
X018154Y007544D02*
X018379Y007544D01*
X018454Y007619D01*
X018454Y007769D01*
X018379Y007844D01*
X018154Y007844D01*
X018615Y007694D02*
X018765Y007844D01*
X018765Y007394D01*
X018615Y007394D02*
X018915Y007394D01*
X018454Y007394D02*
X018304Y007544D01*
X015865Y006344D02*
X015715Y006269D01*
X015565Y006119D01*
X015790Y006119D01*
X015865Y006044D01*
X015865Y005969D01*
X015790Y005894D01*
X015640Y005894D01*
X015565Y005969D01*
X015565Y006119D01*
X015404Y006119D02*
X015329Y006044D01*
X015104Y006044D01*
X015254Y006044D02*
X015404Y005894D01*
X015404Y006119D02*
X015404Y006269D01*
X015329Y006344D01*
X015104Y006344D01*
X015104Y005894D01*
X014295Y005953D02*
X013845Y005953D01*
X013845Y006178D01*
X013920Y006253D01*
X014070Y006253D01*
X014145Y006178D01*
X014145Y005953D01*
X014220Y005718D02*
X013845Y005718D01*
X013845Y005643D02*
X013845Y005793D01*
X014220Y005718D02*
X014295Y005643D01*
X014295Y005568D01*
X014220Y005492D01*
X014295Y006413D02*
X014295Y006713D01*
X014295Y006563D02*
X013845Y006563D01*
X013995Y006413D01*
X012125Y005533D02*
X012125Y005233D01*
X012125Y005383D02*
X011675Y005383D01*
X011825Y005233D01*
X011750Y005073D02*
X011675Y004998D01*
X011675Y004848D01*
X011750Y004773D01*
X012050Y004773D01*
X012125Y004848D01*
X012125Y004998D01*
X012050Y005073D01*
X019375Y004990D02*
X019375Y004839D01*
X019450Y004764D01*
X019450Y004604D02*
X019600Y004604D01*
X019675Y004529D01*
X019675Y004304D01*
X019825Y004304D02*
X019375Y004304D01*
X019375Y004529D01*
X019450Y004604D01*
X019825Y004764D02*
X019525Y005065D01*
X019450Y005065D01*
X019375Y004990D01*
X019825Y005065D02*
X019825Y004764D01*
X019750Y004069D02*
X019375Y004069D01*
X019375Y003994D02*
X019375Y004144D01*
X019750Y004069D02*
X019825Y003994D01*
X019825Y003919D01*
X019750Y003844D01*
X028000Y003931D02*
X028000Y003706D01*
X027450Y004644D02*
X027498Y004679D01*
X027548Y004712D01*
X027600Y004743D01*
X027654Y004770D01*
X027709Y004794D01*
X027766Y004814D01*
X027823Y004832D01*
X027881Y004846D01*
X027940Y004857D01*
X028000Y004864D01*
X029375Y004044D02*
X029675Y004044D01*
X029525Y004044D02*
X029525Y003594D01*
X029835Y003594D02*
X030136Y003594D01*
X029986Y003594D02*
X029986Y004044D01*
X029835Y003894D01*
X029103Y004129D02*
X029083Y004188D01*
X029060Y004245D01*
X029033Y004302D01*
X029002Y004356D01*
X028969Y004409D01*
X028932Y004459D01*
X028893Y004508D01*
X028850Y004553D01*
X028805Y004597D01*
X028758Y004637D01*
X028708Y004675D01*
X028656Y004710D01*
X028602Y004741D01*
X028547Y004769D01*
X028490Y004794D01*
X028431Y004815D01*
X028371Y004833D01*
X028310Y004848D01*
X028249Y004858D01*
X028187Y004865D01*
X028125Y004869D01*
X028062Y004868D01*
X028000Y004864D01*
X029103Y003509D02*
X029083Y003449D01*
X029059Y003390D01*
X029031Y003333D01*
X029000Y003278D01*
X028965Y003224D01*
X028928Y003173D01*
X028887Y003124D01*
X028843Y003078D01*
X028797Y003034D01*
X028748Y002993D01*
X028697Y002955D01*
X028644Y002921D01*
X028588Y002889D01*
X028531Y002862D01*
X028472Y002837D01*
X028412Y002817D01*
X028351Y002799D01*
X028289Y002786D01*
X028226Y002777D01*
X028163Y002771D01*
X028099Y002769D01*
X028035Y002771D01*
X027972Y002777D01*
X027909Y002786D01*
X027847Y002800D01*
X027786Y002817D01*
X027726Y002838D01*
X027667Y002862D01*
X027610Y002890D01*
X027554Y002922D01*
X027501Y002957D01*
X027450Y002994D01*
X028000Y002931D02*
X028000Y002773D01*
X031950Y002994D02*
X031950Y004643D01*
X032500Y004706D02*
X032500Y004864D01*
X032311Y005144D02*
X032311Y005594D01*
X032085Y005369D01*
X032386Y005369D01*
X031925Y005369D02*
X031925Y005519D01*
X031850Y005594D01*
X031625Y005594D01*
X031625Y005144D01*
X031625Y005294D02*
X031850Y005294D01*
X031925Y005369D01*
X031775Y005294D02*
X031925Y005144D01*
X031904Y006144D02*
X031754Y006294D01*
X031829Y006294D02*
X031604Y006294D01*
X031604Y006144D02*
X031604Y006594D01*
X031829Y006594D01*
X031904Y006519D01*
X031904Y006369D01*
X031829Y006294D01*
X032065Y006219D02*
X032140Y006144D01*
X032290Y006144D01*
X032365Y006219D01*
X032365Y006294D01*
X032290Y006369D01*
X032215Y006369D01*
X032290Y006369D02*
X032365Y006444D01*
X032365Y006519D01*
X032290Y006594D01*
X032140Y006594D01*
X032065Y006519D01*
X032160Y007144D02*
X032085Y007219D01*
X032160Y007144D02*
X032311Y007144D01*
X032386Y007219D01*
X032386Y007369D01*
X032311Y007444D01*
X032236Y007444D01*
X032085Y007369D01*
X032085Y007594D01*
X032386Y007594D01*
X031925Y007519D02*
X031925Y007369D01*
X031850Y007294D01*
X031625Y007294D01*
X031775Y007294D02*
X031925Y007144D01*
X031625Y007144D02*
X031625Y007594D01*
X031850Y007594D01*
X031925Y007519D01*
X031100Y007819D02*
X031100Y008819D01*
X034100Y008819D01*
X034100Y007819D01*
X031100Y007819D01*
X033875Y004044D02*
X034175Y004044D01*
X034025Y004044D02*
X034025Y003594D01*
X034335Y003594D02*
X034636Y003894D01*
X034636Y003969D01*
X034561Y004044D01*
X034410Y004044D01*
X034335Y003969D01*
X034335Y003594D02*
X034636Y003594D01*
X033603Y004129D02*
X033583Y004188D01*
X033560Y004245D01*
X033533Y004302D01*
X033502Y004356D01*
X033469Y004409D01*
X033432Y004459D01*
X033393Y004508D01*
X033350Y004553D01*
X033305Y004597D01*
X033258Y004637D01*
X033208Y004675D01*
X033156Y004710D01*
X033102Y004741D01*
X033047Y004769D01*
X032990Y004794D01*
X032931Y004815D01*
X032871Y004833D01*
X032810Y004848D01*
X032749Y004858D01*
X032687Y004865D01*
X032625Y004869D01*
X032562Y004868D01*
X032500Y004864D01*
X032500Y003931D02*
X032500Y003706D01*
X031950Y004644D02*
X031998Y004679D01*
X032048Y004712D01*
X032100Y004743D01*
X032154Y004770D01*
X032209Y004794D01*
X032266Y004814D01*
X032323Y004832D01*
X032381Y004846D01*
X032440Y004857D01*
X032500Y004864D01*
X033603Y003509D02*
X033583Y003449D01*
X033559Y003390D01*
X033531Y003333D01*
X033500Y003278D01*
X033465Y003224D01*
X033428Y003173D01*
X033387Y003124D01*
X033343Y003078D01*
X033297Y003034D01*
X033248Y002993D01*
X033197Y002955D01*
X033144Y002921D01*
X033088Y002889D01*
X033031Y002862D01*
X032972Y002837D01*
X032912Y002817D01*
X032851Y002799D01*
X032789Y002786D01*
X032726Y002777D01*
X032663Y002771D01*
X032599Y002769D01*
X032535Y002771D01*
X032472Y002777D01*
X032409Y002786D01*
X032347Y002800D01*
X032286Y002817D01*
X032226Y002838D01*
X032167Y002862D01*
X032110Y002890D01*
X032054Y002922D01*
X032001Y002957D01*
X031950Y002994D01*
X032500Y002931D02*
X032500Y002773D01*
X012475Y011844D02*
X012475Y012144D01*
X012625Y012304D02*
X012475Y012454D01*
X012475Y012379D01*
X012400Y012379D01*
X012400Y012454D01*
X012475Y012454D01*
X012400Y012611D02*
X012475Y012686D01*
X012475Y012836D01*
X012400Y012911D01*
X012250Y012911D01*
X012175Y012836D01*
X012175Y012761D01*
X012250Y012611D01*
X012025Y012611D01*
X012025Y012911D01*
X012250Y013071D02*
X012250Y013372D01*
X012475Y013297D02*
X012025Y013297D01*
X012250Y013071D01*
X012175Y012144D02*
X012100Y012144D01*
X012025Y012069D01*
X012025Y011919D01*
X012100Y011844D01*
X012175Y012144D02*
X012475Y011844D01*
X009675Y011469D02*
X009675Y011169D01*
X009600Y011094D01*
X009450Y011094D01*
X009375Y011169D01*
X009450Y011319D02*
X009675Y011319D01*
X009675Y011469D02*
X009600Y011544D01*
X009450Y011544D01*
X009375Y011469D01*
X009375Y011394D01*
X009450Y011319D01*
X009375Y010544D02*
X009375Y010319D01*
X009525Y010394D01*
X009600Y010394D01*
X009675Y010319D01*
X009675Y010169D01*
X009600Y010094D01*
X009450Y010094D01*
X009375Y010169D01*
X009375Y010544D02*
X009675Y010544D01*
X003925Y010094D02*
X003625Y010094D01*
X003775Y010094D02*
X003775Y010544D01*
X003625Y010394D01*
X003700Y011094D02*
X003850Y011094D01*
X003925Y011169D01*
X003925Y011244D01*
X003850Y011319D01*
X003625Y011319D01*
X003625Y011169D01*
X003700Y011094D01*
X003625Y011319D02*
X003775Y011469D01*
X003925Y011544D01*
X004160Y014194D02*
X004085Y014269D01*
X004386Y014569D01*
X004386Y014269D01*
X004311Y014194D01*
X004160Y014194D01*
X004085Y014269D02*
X004085Y014569D01*
X004160Y014644D01*
X004311Y014644D01*
X004386Y014569D01*
X004546Y014569D02*
X004546Y014494D01*
X004621Y014419D01*
X004846Y014419D01*
X004846Y014269D02*
X004846Y014569D01*
X004771Y014644D01*
X004621Y014644D01*
X004546Y014569D01*
X004546Y014269D02*
X004621Y014194D01*
X004771Y014194D01*
X004846Y014269D01*
X003925Y014644D02*
X003625Y014644D01*
X003625Y014194D01*
X003625Y014419D02*
X003775Y014419D01*
D13*
X002800Y013819D02*
X002770Y013821D01*
X002740Y013826D01*
X002711Y013835D01*
X002684Y013848D01*
X002658Y013863D01*
X002634Y013882D01*
X002613Y013903D01*
X002594Y013927D01*
X002579Y013953D01*
X002566Y013980D01*
X002557Y014009D01*
X002552Y014039D01*
X002550Y014069D01*
X002550Y015019D01*
X002500Y015019D01*
X002500Y015219D01*
X010700Y015219D01*
X010700Y015019D01*
X010650Y015019D01*
X010650Y014069D01*
X010648Y014039D01*
X010643Y014009D01*
X010634Y013980D01*
X010621Y013953D01*
X010606Y013927D01*
X010587Y013903D01*
X010566Y013882D01*
X010542Y013863D01*
X010516Y013848D01*
X010489Y013835D01*
X010460Y013826D01*
X010430Y013821D01*
X010400Y013819D01*
X010350Y013819D02*
X010350Y009769D01*
X010550Y009569D01*
X012500Y009569D01*
X012700Y009769D01*
X012700Y013769D01*
X012700Y013819D01*
X010700Y013819D01*
X010350Y013819D01*
X010250Y013819D01*
X010250Y013519D01*
X002950Y013519D01*
X002950Y013819D01*
X010250Y013819D01*
X012700Y013819D02*
X012700Y015019D01*
X012700Y015219D01*
X011700Y015219D01*
X010700Y015219D01*
X010050Y015419D02*
X010020Y015421D01*
X009990Y015426D01*
X009961Y015435D01*
X009934Y015448D01*
X009908Y015463D01*
X009884Y015482D01*
X009863Y015503D01*
X009844Y015527D01*
X009829Y015553D01*
X009816Y015580D01*
X009807Y015609D01*
X009802Y015639D01*
X009800Y015669D01*
X009800Y017669D01*
X009798Y017695D01*
X009793Y017721D01*
X009785Y017746D01*
X009773Y017769D01*
X009759Y017791D01*
X009741Y017810D01*
X009722Y017828D01*
X009700Y017842D01*
X009677Y017854D01*
X009652Y017862D01*
X009626Y017867D01*
X009600Y017869D01*
X009500Y017869D01*
X003700Y017869D01*
X003600Y017869D01*
X003574Y017867D01*
X003548Y017862D01*
X003523Y017854D01*
X003500Y017842D01*
X003478Y017828D01*
X003459Y017810D01*
X003441Y017791D01*
X003427Y017769D01*
X003415Y017746D01*
X003407Y017721D01*
X003402Y017695D01*
X003400Y017669D01*
X003400Y015669D01*
X003398Y015639D01*
X003393Y015609D01*
X003384Y015580D01*
X003371Y015553D01*
X003356Y015527D01*
X003337Y015503D01*
X003316Y015482D01*
X003292Y015463D01*
X003266Y015448D01*
X003239Y015435D01*
X003210Y015426D01*
X003180Y015421D01*
X003150Y015419D01*
X002500Y015219D02*
X001500Y015219D01*
X000500Y015219D01*
X000500Y015419D01*
X003550Y015419D01*
X009650Y015419D01*
X012700Y015419D01*
X012700Y015219D01*
X014500Y015219D02*
X014500Y015019D01*
X015500Y015019D01*
X015500Y014919D01*
X016500Y014919D01*
X016500Y015019D01*
X016550Y015019D01*
X016550Y014069D01*
X016552Y014039D01*
X016557Y014009D01*
X016566Y013980D01*
X016579Y013953D01*
X016594Y013927D01*
X016613Y013903D01*
X016634Y013882D01*
X016658Y013863D01*
X016684Y013848D01*
X016711Y013835D01*
X016740Y013826D01*
X016770Y013821D01*
X016800Y013819D01*
X016850Y013819D02*
X016850Y009769D01*
X016650Y009569D01*
X014750Y009569D01*
X014500Y009819D01*
X014500Y013769D01*
X016500Y013769D01*
X016500Y013819D01*
X016850Y013819D01*
X016950Y013819D01*
X024250Y013819D01*
X024350Y013819D01*
X024350Y009769D01*
X024550Y009569D01*
X026500Y009569D01*
X026700Y009769D01*
X026700Y013769D01*
X024700Y013769D01*
X024700Y013819D01*
X026700Y013819D01*
X026700Y013769D01*
X026700Y013819D02*
X026700Y015019D01*
X025700Y015019D01*
X025700Y014919D01*
X024700Y014919D01*
X024700Y015019D01*
X024650Y015019D01*
X024650Y014069D01*
X024648Y014039D01*
X024643Y014009D01*
X024634Y013980D01*
X024621Y013953D01*
X024606Y013927D01*
X024587Y013903D01*
X024566Y013882D01*
X024542Y013863D01*
X024516Y013848D01*
X024489Y013835D01*
X024460Y013826D01*
X024430Y013821D01*
X024400Y013819D01*
X024350Y013819D02*
X024700Y013819D01*
X024250Y013819D02*
X024250Y013519D01*
X016950Y013519D01*
X016950Y013819D01*
X016500Y013819D02*
X014500Y013819D01*
X014500Y013769D01*
X014500Y013819D02*
X014500Y015019D01*
X014500Y015219D02*
X015500Y015219D01*
X015500Y015019D01*
X015500Y015219D02*
X016500Y015219D01*
X024700Y015219D01*
X024700Y015019D01*
X024650Y015019D02*
X016550Y015019D01*
X016500Y015019D02*
X016500Y015219D01*
X017300Y015419D02*
X014500Y015419D01*
X014500Y015219D01*
X016900Y015419D02*
X016930Y015421D01*
X016960Y015426D01*
X016989Y015435D01*
X017016Y015448D01*
X017042Y015463D01*
X017066Y015482D01*
X017087Y015503D01*
X017106Y015527D01*
X017121Y015553D01*
X017134Y015580D01*
X017143Y015609D01*
X017148Y015639D01*
X017150Y015669D01*
X017150Y017519D01*
X017300Y017519D02*
X017300Y015419D01*
X023900Y015419D01*
X026700Y015419D01*
X026700Y015219D01*
X025700Y015219D01*
X024700Y015219D01*
X023900Y015419D02*
X023900Y017519D01*
X024050Y017519D02*
X024048Y017545D01*
X024043Y017571D01*
X024035Y017596D01*
X024023Y017619D01*
X024009Y017641D01*
X023991Y017660D01*
X023972Y017678D01*
X023950Y017692D01*
X023927Y017704D01*
X023902Y017712D01*
X023876Y017717D01*
X023850Y017719D01*
X023750Y017719D01*
X017450Y017719D01*
X017450Y015619D01*
X018600Y016319D02*
X018600Y017219D01*
X018750Y017219D01*
X018750Y016469D01*
X019350Y016469D01*
X019350Y017219D01*
X019500Y017219D01*
X019500Y016319D01*
X018600Y016319D01*
X020150Y016319D02*
X020150Y017219D01*
X020300Y017219D01*
X020300Y016469D01*
X020900Y016469D01*
X020900Y017219D01*
X021050Y017219D01*
X021050Y016319D01*
X020150Y016319D01*
X021700Y016319D02*
X021700Y017219D01*
X021850Y017219D01*
X021850Y016469D01*
X022450Y016469D01*
X022450Y017219D01*
X022600Y017219D01*
X022600Y016319D01*
X021700Y016319D01*
X023750Y015619D02*
X023750Y017719D01*
X024050Y017519D02*
X024050Y015669D01*
X024052Y015639D01*
X024057Y015609D01*
X024066Y015580D01*
X024079Y015553D01*
X024094Y015527D01*
X024113Y015503D01*
X024134Y015482D01*
X024158Y015463D01*
X024184Y015448D01*
X024211Y015435D01*
X024240Y015426D01*
X024270Y015421D01*
X024300Y015419D01*
X025700Y015219D02*
X025700Y015019D01*
X026700Y015019D02*
X026700Y015219D01*
X017450Y017719D02*
X017350Y017719D01*
X017324Y017717D01*
X017298Y017712D01*
X017273Y017704D01*
X017250Y017692D01*
X017228Y017678D01*
X017209Y017660D01*
X017191Y017641D01*
X017177Y017619D01*
X017165Y017596D01*
X017157Y017571D01*
X017152Y017545D01*
X017150Y017519D01*
X002950Y013819D02*
X002850Y013819D01*
X002850Y009769D01*
X002650Y009569D01*
X000750Y009569D01*
X000500Y009819D01*
X000500Y013769D01*
X000500Y013819D01*
X000500Y015019D01*
X000500Y015219D01*
X000500Y013819D02*
X002500Y013819D01*
X002850Y013819D01*
X001020Y010819D02*
X001022Y010869D01*
X001028Y010919D01*
X001038Y010969D01*
X001051Y011017D01*
X001068Y011065D01*
X001089Y011111D01*
X001113Y011155D01*
X001141Y011197D01*
X001172Y011237D01*
X001206Y011274D01*
X001243Y011309D01*
X001282Y011340D01*
X001323Y011369D01*
X001367Y011394D01*
X001413Y011416D01*
X001460Y011434D01*
X001508Y011448D01*
X001557Y011459D01*
X001607Y011466D01*
X001657Y011469D01*
X001708Y011468D01*
X001758Y011463D01*
X001808Y011454D01*
X001856Y011442D01*
X001904Y011425D01*
X001950Y011405D01*
X001995Y011382D01*
X002038Y011355D01*
X002078Y011325D01*
X002116Y011292D01*
X002151Y011256D01*
X002184Y011217D01*
X002213Y011176D01*
X002239Y011133D01*
X002262Y011088D01*
X002281Y011041D01*
X002296Y010993D01*
X002308Y010944D01*
X002316Y010894D01*
X002320Y010844D01*
X002320Y010794D01*
X002316Y010744D01*
X002308Y010694D01*
X002296Y010645D01*
X002281Y010597D01*
X002262Y010550D01*
X002239Y010505D01*
X002213Y010462D01*
X002184Y010421D01*
X002151Y010382D01*
X002116Y010346D01*
X002078Y010313D01*
X002038Y010283D01*
X001995Y010256D01*
X001950Y010233D01*
X001904Y010213D01*
X001856Y010196D01*
X001808Y010184D01*
X001758Y010175D01*
X001708Y010170D01*
X001657Y010169D01*
X001607Y010172D01*
X001557Y010179D01*
X001508Y010190D01*
X001460Y010204D01*
X001413Y010222D01*
X001367Y010244D01*
X001323Y010269D01*
X001282Y010298D01*
X001243Y010329D01*
X001206Y010364D01*
X001172Y010401D01*
X001141Y010441D01*
X001113Y010483D01*
X001089Y010527D01*
X001068Y010573D01*
X001051Y010621D01*
X001038Y010669D01*
X001028Y010719D01*
X001022Y010769D01*
X001020Y010819D01*
X010880Y010819D02*
X010882Y010869D01*
X010888Y010919D01*
X010898Y010969D01*
X010911Y011017D01*
X010928Y011065D01*
X010949Y011111D01*
X010973Y011155D01*
X011001Y011197D01*
X011032Y011237D01*
X011066Y011274D01*
X011103Y011309D01*
X011142Y011340D01*
X011183Y011369D01*
X011227Y011394D01*
X011273Y011416D01*
X011320Y011434D01*
X011368Y011448D01*
X011417Y011459D01*
X011467Y011466D01*
X011517Y011469D01*
X011568Y011468D01*
X011618Y011463D01*
X011668Y011454D01*
X011716Y011442D01*
X011764Y011425D01*
X011810Y011405D01*
X011855Y011382D01*
X011898Y011355D01*
X011938Y011325D01*
X011976Y011292D01*
X012011Y011256D01*
X012044Y011217D01*
X012073Y011176D01*
X012099Y011133D01*
X012122Y011088D01*
X012141Y011041D01*
X012156Y010993D01*
X012168Y010944D01*
X012176Y010894D01*
X012180Y010844D01*
X012180Y010794D01*
X012176Y010744D01*
X012168Y010694D01*
X012156Y010645D01*
X012141Y010597D01*
X012122Y010550D01*
X012099Y010505D01*
X012073Y010462D01*
X012044Y010421D01*
X012011Y010382D01*
X011976Y010346D01*
X011938Y010313D01*
X011898Y010283D01*
X011855Y010256D01*
X011810Y010233D01*
X011764Y010213D01*
X011716Y010196D01*
X011668Y010184D01*
X011618Y010175D01*
X011568Y010170D01*
X011517Y010169D01*
X011467Y010172D01*
X011417Y010179D01*
X011368Y010190D01*
X011320Y010204D01*
X011273Y010222D01*
X011227Y010244D01*
X011183Y010269D01*
X011142Y010298D01*
X011103Y010329D01*
X011066Y010364D01*
X011032Y010401D01*
X011001Y010441D01*
X010973Y010483D01*
X010949Y010527D01*
X010928Y010573D01*
X010911Y010621D01*
X010898Y010669D01*
X010888Y010719D01*
X010882Y010769D01*
X010880Y010819D01*
X015020Y010819D02*
X015022Y010869D01*
X015028Y010919D01*
X015038Y010969D01*
X015051Y011017D01*
X015068Y011065D01*
X015089Y011111D01*
X015113Y011155D01*
X015141Y011197D01*
X015172Y011237D01*
X015206Y011274D01*
X015243Y011309D01*
X015282Y011340D01*
X015323Y011369D01*
X015367Y011394D01*
X015413Y011416D01*
X015460Y011434D01*
X015508Y011448D01*
X015557Y011459D01*
X015607Y011466D01*
X015657Y011469D01*
X015708Y011468D01*
X015758Y011463D01*
X015808Y011454D01*
X015856Y011442D01*
X015904Y011425D01*
X015950Y011405D01*
X015995Y011382D01*
X016038Y011355D01*
X016078Y011325D01*
X016116Y011292D01*
X016151Y011256D01*
X016184Y011217D01*
X016213Y011176D01*
X016239Y011133D01*
X016262Y011088D01*
X016281Y011041D01*
X016296Y010993D01*
X016308Y010944D01*
X016316Y010894D01*
X016320Y010844D01*
X016320Y010794D01*
X016316Y010744D01*
X016308Y010694D01*
X016296Y010645D01*
X016281Y010597D01*
X016262Y010550D01*
X016239Y010505D01*
X016213Y010462D01*
X016184Y010421D01*
X016151Y010382D01*
X016116Y010346D01*
X016078Y010313D01*
X016038Y010283D01*
X015995Y010256D01*
X015950Y010233D01*
X015904Y010213D01*
X015856Y010196D01*
X015808Y010184D01*
X015758Y010175D01*
X015708Y010170D01*
X015657Y010169D01*
X015607Y010172D01*
X015557Y010179D01*
X015508Y010190D01*
X015460Y010204D01*
X015413Y010222D01*
X015367Y010244D01*
X015323Y010269D01*
X015282Y010298D01*
X015243Y010329D01*
X015206Y010364D01*
X015172Y010401D01*
X015141Y010441D01*
X015113Y010483D01*
X015089Y010527D01*
X015068Y010573D01*
X015051Y010621D01*
X015038Y010669D01*
X015028Y010719D01*
X015022Y010769D01*
X015020Y010819D01*
X020100Y008569D02*
X020100Y008069D01*
X020350Y007819D01*
X021850Y007819D01*
X022100Y007569D01*
X022100Y007069D01*
X021850Y006819D01*
X020350Y006819D01*
X020100Y007069D01*
X020100Y007569D01*
X020350Y007819D01*
X021850Y007819D02*
X022100Y008069D01*
X022100Y008569D01*
X021850Y008819D01*
X020350Y008819D01*
X020100Y008569D01*
X018050Y007469D02*
X018050Y007319D01*
X018000Y007269D01*
X018000Y005369D01*
X018050Y005319D01*
X018050Y005169D01*
X018048Y005152D01*
X018044Y005135D01*
X018037Y005119D01*
X018027Y005105D01*
X018014Y005092D01*
X018000Y005082D01*
X017984Y005075D01*
X017967Y005071D01*
X017950Y005069D01*
X017250Y005069D01*
X017233Y005071D01*
X017216Y005075D01*
X017200Y005082D01*
X017186Y005092D01*
X017173Y005105D01*
X017163Y005119D01*
X017156Y005135D01*
X017152Y005152D01*
X017150Y005169D01*
X017150Y005319D01*
X017200Y005369D01*
X017200Y007269D01*
X017150Y007319D01*
X017150Y007469D01*
X017152Y007486D01*
X017156Y007503D01*
X017163Y007519D01*
X017173Y007533D01*
X017186Y007546D01*
X017200Y007556D01*
X017216Y007563D01*
X017233Y007567D01*
X017250Y007569D01*
X017950Y007569D01*
X017967Y007567D01*
X017984Y007563D01*
X018000Y007556D01*
X018014Y007546D01*
X018027Y007533D01*
X018037Y007519D01*
X018044Y007503D01*
X018048Y007486D01*
X018050Y007469D01*
X016950Y006569D02*
X016250Y006569D01*
X016233Y006567D01*
X016216Y006563D01*
X016200Y006556D01*
X016186Y006546D01*
X016173Y006533D01*
X016163Y006519D01*
X016156Y006503D01*
X016152Y006486D01*
X016150Y006469D01*
X016150Y006319D01*
X016200Y006269D01*
X016200Y004369D01*
X016150Y004319D01*
X016150Y004169D01*
X016152Y004152D01*
X016156Y004135D01*
X016163Y004119D01*
X016173Y004105D01*
X016186Y004092D01*
X016200Y004082D01*
X016216Y004075D01*
X016233Y004071D01*
X016250Y004069D01*
X016950Y004069D01*
X016967Y004071D01*
X016984Y004075D01*
X017000Y004082D01*
X017014Y004092D01*
X017027Y004105D01*
X017037Y004119D01*
X017044Y004135D01*
X017048Y004152D01*
X017050Y004169D01*
X017050Y004319D01*
X017000Y004369D01*
X017000Y006269D01*
X017050Y006319D01*
X017050Y006469D01*
X017048Y006486D01*
X017044Y006503D01*
X017037Y006519D01*
X017027Y006533D01*
X017014Y006546D01*
X017000Y006556D01*
X016984Y006563D01*
X016967Y006567D01*
X016950Y006569D01*
X020100Y005569D02*
X020350Y005819D01*
X021850Y005819D01*
X022100Y005569D01*
X022100Y005069D01*
X021850Y004819D01*
X020350Y004819D01*
X020100Y005069D01*
X020100Y005569D01*
X020350Y004819D02*
X020100Y004569D01*
X020100Y004069D01*
X020350Y003819D01*
X021850Y003819D01*
X022100Y004069D01*
X022100Y004569D01*
X021850Y004819D01*
X026350Y004969D02*
X026350Y005669D01*
X026352Y005686D01*
X026356Y005703D01*
X026363Y005719D01*
X026373Y005733D01*
X026386Y005746D01*
X026400Y005756D01*
X026416Y005763D01*
X026433Y005767D01*
X026450Y005769D01*
X026600Y005769D01*
X026650Y005719D01*
X028550Y005719D01*
X028600Y005769D01*
X028750Y005769D01*
X028750Y005869D02*
X028600Y005869D01*
X028550Y005919D01*
X026650Y005919D01*
X026600Y005869D01*
X026450Y005869D01*
X026433Y005871D01*
X026416Y005875D01*
X026400Y005882D01*
X026386Y005892D01*
X026373Y005905D01*
X026363Y005919D01*
X026356Y005935D01*
X026352Y005952D01*
X026350Y005969D01*
X026350Y006669D01*
X026352Y006686D01*
X026356Y006703D01*
X026363Y006719D01*
X026373Y006733D01*
X026386Y006746D01*
X026400Y006756D01*
X026416Y006763D01*
X026433Y006767D01*
X026450Y006769D01*
X026600Y006769D01*
X026650Y006719D01*
X028550Y006719D01*
X028600Y006769D01*
X028750Y006769D01*
X028767Y006767D01*
X028784Y006763D01*
X028800Y006756D01*
X028814Y006746D01*
X028827Y006733D01*
X028837Y006719D01*
X028844Y006703D01*
X028848Y006686D01*
X028850Y006669D01*
X028850Y005969D01*
X028848Y005952D01*
X028844Y005935D01*
X028837Y005919D01*
X028827Y005905D01*
X028814Y005892D01*
X028800Y005882D01*
X028784Y005875D01*
X028767Y005871D01*
X028750Y005869D01*
X028750Y005769D02*
X028767Y005767D01*
X028784Y005763D01*
X028800Y005756D01*
X028814Y005746D01*
X028827Y005733D01*
X028837Y005719D01*
X028844Y005703D01*
X028848Y005686D01*
X028850Y005669D01*
X028850Y004969D01*
X028848Y004952D01*
X028844Y004935D01*
X028837Y004919D01*
X028827Y004905D01*
X028814Y004892D01*
X028800Y004882D01*
X028784Y004875D01*
X028767Y004871D01*
X028750Y004869D01*
X028600Y004869D01*
X028550Y004919D01*
X026650Y004919D01*
X026600Y004869D01*
X026450Y004869D01*
X026433Y004871D01*
X026416Y004875D01*
X026400Y004882D01*
X026386Y004892D01*
X026373Y004905D01*
X026363Y004919D01*
X026356Y004935D01*
X026352Y004952D01*
X026350Y004969D01*
X031350Y004969D02*
X031350Y005669D01*
X031352Y005686D01*
X031356Y005703D01*
X031363Y005719D01*
X031373Y005733D01*
X031386Y005746D01*
X031400Y005756D01*
X031416Y005763D01*
X031433Y005767D01*
X031450Y005769D01*
X031600Y005769D01*
X031650Y005719D01*
X033550Y005719D01*
X033600Y005769D01*
X033750Y005769D01*
X033750Y005869D02*
X033600Y005869D01*
X033550Y005919D01*
X031650Y005919D01*
X031600Y005869D01*
X031450Y005869D01*
X031433Y005871D01*
X031416Y005875D01*
X031400Y005882D01*
X031386Y005892D01*
X031373Y005905D01*
X031363Y005919D01*
X031356Y005935D01*
X031352Y005952D01*
X031350Y005969D01*
X031350Y006669D01*
X031352Y006686D01*
X031356Y006703D01*
X031363Y006719D01*
X031373Y006733D01*
X031386Y006746D01*
X031400Y006756D01*
X031416Y006763D01*
X031433Y006767D01*
X031450Y006769D01*
X031600Y006769D01*
X031650Y006719D01*
X033550Y006719D01*
X033600Y006769D01*
X033750Y006769D01*
X033750Y006869D02*
X033600Y006869D01*
X033550Y006919D01*
X031650Y006919D01*
X031600Y006869D01*
X031450Y006869D01*
X031433Y006871D01*
X031416Y006875D01*
X031400Y006882D01*
X031386Y006892D01*
X031373Y006905D01*
X031363Y006919D01*
X031356Y006935D01*
X031352Y006952D01*
X031350Y006969D01*
X031350Y007669D01*
X031352Y007686D01*
X031356Y007703D01*
X031363Y007719D01*
X031373Y007733D01*
X031386Y007746D01*
X031400Y007756D01*
X031416Y007763D01*
X031433Y007767D01*
X031450Y007769D01*
X031600Y007769D01*
X031650Y007719D01*
X033550Y007719D01*
X033600Y007769D01*
X033750Y007769D01*
X033767Y007767D01*
X033784Y007763D01*
X033800Y007756D01*
X033814Y007746D01*
X033827Y007733D01*
X033837Y007719D01*
X033844Y007703D01*
X033848Y007686D01*
X033850Y007669D01*
X033850Y006969D01*
X033848Y006952D01*
X033844Y006935D01*
X033837Y006919D01*
X033827Y006905D01*
X033814Y006892D01*
X033800Y006882D01*
X033784Y006875D01*
X033767Y006871D01*
X033750Y006869D01*
X033750Y006769D02*
X033767Y006767D01*
X033784Y006763D01*
X033800Y006756D01*
X033814Y006746D01*
X033827Y006733D01*
X033837Y006719D01*
X033844Y006703D01*
X033848Y006686D01*
X033850Y006669D01*
X033850Y005969D01*
X033848Y005952D01*
X033844Y005935D01*
X033837Y005919D01*
X033827Y005905D01*
X033814Y005892D01*
X033800Y005882D01*
X033784Y005875D01*
X033767Y005871D01*
X033750Y005869D01*
X033750Y005769D02*
X033767Y005767D01*
X033784Y005763D01*
X033800Y005756D01*
X033814Y005746D01*
X033827Y005733D01*
X033837Y005719D01*
X033844Y005703D01*
X033848Y005686D01*
X033850Y005669D01*
X033850Y004969D01*
X033848Y004952D01*
X033844Y004935D01*
X033837Y004919D01*
X033827Y004905D01*
X033814Y004892D01*
X033800Y004882D01*
X033784Y004875D01*
X033767Y004871D01*
X033750Y004869D01*
X033600Y004869D01*
X033550Y004919D01*
X031650Y004919D01*
X031600Y004869D01*
X031450Y004869D01*
X031433Y004871D01*
X031416Y004875D01*
X031400Y004882D01*
X031386Y004892D01*
X031373Y004905D01*
X031363Y004919D01*
X031356Y004935D01*
X031352Y004952D01*
X031350Y004969D01*
X024880Y010819D02*
X024882Y010869D01*
X024888Y010919D01*
X024898Y010969D01*
X024911Y011017D01*
X024928Y011065D01*
X024949Y011111D01*
X024973Y011155D01*
X025001Y011197D01*
X025032Y011237D01*
X025066Y011274D01*
X025103Y011309D01*
X025142Y011340D01*
X025183Y011369D01*
X025227Y011394D01*
X025273Y011416D01*
X025320Y011434D01*
X025368Y011448D01*
X025417Y011459D01*
X025467Y011466D01*
X025517Y011469D01*
X025568Y011468D01*
X025618Y011463D01*
X025668Y011454D01*
X025716Y011442D01*
X025764Y011425D01*
X025810Y011405D01*
X025855Y011382D01*
X025898Y011355D01*
X025938Y011325D01*
X025976Y011292D01*
X026011Y011256D01*
X026044Y011217D01*
X026073Y011176D01*
X026099Y011133D01*
X026122Y011088D01*
X026141Y011041D01*
X026156Y010993D01*
X026168Y010944D01*
X026176Y010894D01*
X026180Y010844D01*
X026180Y010794D01*
X026176Y010744D01*
X026168Y010694D01*
X026156Y010645D01*
X026141Y010597D01*
X026122Y010550D01*
X026099Y010505D01*
X026073Y010462D01*
X026044Y010421D01*
X026011Y010382D01*
X025976Y010346D01*
X025938Y010313D01*
X025898Y010283D01*
X025855Y010256D01*
X025810Y010233D01*
X025764Y010213D01*
X025716Y010196D01*
X025668Y010184D01*
X025618Y010175D01*
X025568Y010170D01*
X025517Y010169D01*
X025467Y010172D01*
X025417Y010179D01*
X025368Y010190D01*
X025320Y010204D01*
X025273Y010222D01*
X025227Y010244D01*
X025183Y010269D01*
X025142Y010298D01*
X025103Y010329D01*
X025066Y010364D01*
X025032Y010401D01*
X025001Y010441D01*
X024973Y010483D01*
X024949Y010527D01*
X024928Y010573D01*
X024911Y010621D01*
X024898Y010669D01*
X024888Y010719D01*
X024882Y010769D01*
X024880Y010819D01*
X013600Y006569D02*
X013600Y006069D01*
X013350Y005819D01*
X013600Y005569D01*
X013600Y005069D01*
X013350Y004819D01*
X012850Y004819D01*
X012600Y005069D01*
X012600Y005569D01*
X012850Y005819D01*
X012600Y006069D01*
X012600Y006569D01*
X012850Y006819D01*
X013350Y006819D01*
X013600Y006569D01*
X013350Y005819D02*
X012850Y005819D01*
X011550Y005469D02*
X011550Y004169D01*
X011548Y004143D01*
X011543Y004117D01*
X011535Y004092D01*
X011523Y004069D01*
X011509Y004047D01*
X011491Y004028D01*
X011472Y004010D01*
X011450Y003996D01*
X011427Y003984D01*
X011402Y003976D01*
X011376Y003971D01*
X011350Y003969D01*
X010850Y003969D02*
X010824Y003971D01*
X010798Y003976D01*
X010773Y003984D01*
X010750Y003996D01*
X010728Y004010D01*
X010709Y004028D01*
X010691Y004047D01*
X010677Y004069D01*
X010665Y004092D01*
X010657Y004117D01*
X010652Y004143D01*
X010650Y004169D01*
X010650Y005469D01*
X010652Y005495D01*
X010657Y005521D01*
X010665Y005546D01*
X010677Y005569D01*
X010691Y005591D01*
X010709Y005610D01*
X010728Y005628D01*
X010750Y005642D01*
X010773Y005654D01*
X010798Y005662D01*
X010824Y005667D01*
X010850Y005669D01*
X011350Y005669D02*
X011376Y005667D01*
X011402Y005662D01*
X011427Y005654D01*
X011450Y005642D01*
X011472Y005628D01*
X011491Y005610D01*
X011509Y005591D01*
X011523Y005569D01*
X011535Y005546D01*
X011543Y005521D01*
X011548Y005495D01*
X011550Y005469D01*
X011100Y005319D02*
X011100Y004939D01*
X011100Y004689D02*
X011100Y004319D01*
X012600Y004069D02*
X012600Y004569D01*
X012850Y004819D01*
X013350Y004819D02*
X013600Y004569D01*
X013600Y004069D01*
X013350Y003819D01*
X013600Y003569D01*
X013600Y003069D01*
X013350Y002819D01*
X012850Y002819D01*
X012600Y003069D01*
X012600Y003569D01*
X012850Y003819D01*
X012600Y004069D01*
X012850Y003819D02*
X013350Y003819D01*
D14*
X026180Y005319D03*
X026180Y006319D03*
X029020Y006319D03*
X029020Y005319D03*
X031180Y005319D03*
X031180Y006319D03*
X031180Y007319D03*
X034020Y007319D03*
X034020Y006319D03*
X034020Y005319D03*
D15*
X017600Y004899D03*
X016600Y003899D03*
X016600Y006739D03*
X017600Y007739D03*
D16*
X013595Y009163D02*
X013595Y009073D01*
X013595Y009074D02*
X013541Y009072D01*
X013488Y009066D01*
X013435Y009056D01*
X013383Y009042D01*
X013332Y009025D01*
X013283Y009004D01*
X013235Y008980D01*
X013189Y008952D01*
X013145Y008921D01*
X013103Y008887D01*
X013064Y008851D01*
X013027Y008811D01*
X012994Y008769D01*
X012963Y008725D01*
X012936Y008679D01*
X012857Y008721D01*
X012885Y008770D01*
X012917Y008816D01*
X012952Y008861D01*
X012989Y008903D01*
X013030Y008943D01*
X013073Y008979D01*
X013118Y009013D01*
X013165Y009044D01*
X013215Y009071D01*
X013266Y009095D01*
X013318Y009116D01*
X013372Y009133D01*
X013427Y009146D01*
X013482Y009156D01*
X013539Y009162D01*
X013595Y009164D01*
X013595Y009155D01*
X013539Y009153D01*
X013484Y009147D01*
X013429Y009137D01*
X013374Y009124D01*
X013321Y009107D01*
X013269Y009087D01*
X013219Y009063D01*
X013170Y009036D01*
X013123Y009006D01*
X013078Y008972D01*
X013036Y008936D01*
X012996Y008897D01*
X012959Y008855D01*
X012924Y008811D01*
X012893Y008765D01*
X012865Y008717D01*
X012873Y008713D01*
X012901Y008760D01*
X012932Y008806D01*
X012966Y008849D01*
X013002Y008891D01*
X013042Y008929D01*
X013084Y008965D01*
X013128Y008998D01*
X013174Y009028D01*
X013223Y009055D01*
X013273Y009078D01*
X013324Y009099D01*
X013377Y009115D01*
X013430Y009128D01*
X013485Y009138D01*
X013540Y009144D01*
X013595Y009146D01*
X013595Y009137D01*
X013540Y009135D01*
X013486Y009129D01*
X013432Y009120D01*
X013379Y009107D01*
X013327Y009090D01*
X013276Y009070D01*
X013227Y009047D01*
X013179Y009020D01*
X013133Y008991D01*
X013089Y008958D01*
X013048Y008923D01*
X013009Y008884D01*
X012972Y008844D01*
X012939Y008801D01*
X012908Y008755D01*
X012881Y008708D01*
X012889Y008704D01*
X012916Y008751D01*
X012946Y008795D01*
X012979Y008838D01*
X013015Y008878D01*
X013054Y008916D01*
X013095Y008951D01*
X013138Y008983D01*
X013184Y009013D01*
X013231Y009039D01*
X013280Y009062D01*
X013330Y009082D01*
X013382Y009098D01*
X013434Y009111D01*
X013487Y009120D01*
X013541Y009126D01*
X013595Y009128D01*
X013595Y009119D01*
X013542Y009117D01*
X013489Y009111D01*
X013436Y009102D01*
X013384Y009089D01*
X013333Y009073D01*
X013283Y009054D01*
X013235Y009031D01*
X013188Y009005D01*
X013144Y008976D01*
X013101Y008944D01*
X013060Y008909D01*
X013022Y008872D01*
X012986Y008832D01*
X012953Y008790D01*
X012923Y008746D01*
X012896Y008700D01*
X012904Y008696D01*
X012931Y008741D01*
X012961Y008785D01*
X012993Y008826D01*
X013028Y008866D01*
X013066Y008903D01*
X013106Y008937D01*
X013149Y008969D01*
X013193Y008997D01*
X013239Y009023D01*
X013287Y009045D01*
X013336Y009065D01*
X013386Y009081D01*
X013438Y009093D01*
X013490Y009102D01*
X013542Y009108D01*
X013595Y009110D01*
X013595Y009101D01*
X013539Y009099D01*
X013484Y009092D01*
X013429Y009082D01*
X013375Y009068D01*
X013323Y009050D01*
X013271Y009029D01*
X013222Y009003D01*
X013174Y008975D01*
X013128Y008943D01*
X013085Y008908D01*
X013045Y008870D01*
X013007Y008829D01*
X012972Y008785D01*
X012941Y008739D01*
X012912Y008691D01*
X012920Y008687D01*
X012948Y008735D01*
X012979Y008780D01*
X013014Y008823D01*
X013051Y008863D01*
X013091Y008901D01*
X013134Y008936D01*
X013179Y008967D01*
X013226Y008996D01*
X013275Y009020D01*
X013326Y009042D01*
X013378Y009059D01*
X013431Y009073D01*
X013485Y009083D01*
X013540Y009090D01*
X013595Y009092D01*
X013595Y009083D01*
X013541Y009081D01*
X013487Y009075D01*
X013433Y009065D01*
X013381Y009051D01*
X013329Y009033D01*
X013279Y009012D01*
X013230Y008988D01*
X013184Y008960D01*
X013139Y008928D01*
X013097Y008894D01*
X013058Y008857D01*
X013021Y008817D01*
X012987Y008775D01*
X012956Y008730D01*
X012928Y008683D01*
X012869Y007896D02*
X012947Y007941D01*
X012947Y007940D02*
X012975Y007896D01*
X013006Y007854D01*
X013039Y007814D01*
X013075Y007776D01*
X013114Y007741D01*
X013155Y007709D01*
X013199Y007679D01*
X013244Y007653D01*
X013291Y007630D01*
X013339Y007610D01*
X013389Y007594D01*
X013439Y007581D01*
X013491Y007572D01*
X013543Y007566D01*
X013595Y007564D01*
X013596Y007475D01*
X013595Y007474D01*
X013540Y007476D01*
X013486Y007482D01*
X013431Y007491D01*
X013378Y007504D01*
X013326Y007520D01*
X013274Y007539D01*
X013224Y007562D01*
X013176Y007588D01*
X013129Y007617D01*
X013085Y007649D01*
X013042Y007684D01*
X013002Y007722D01*
X012965Y007762D01*
X012930Y007804D01*
X012898Y007849D01*
X012869Y007895D01*
X012877Y007900D01*
X012905Y007854D01*
X012937Y007810D01*
X012972Y007768D01*
X013009Y007728D01*
X013048Y007691D01*
X013090Y007656D01*
X013134Y007625D01*
X013180Y007596D01*
X013228Y007570D01*
X013278Y007548D01*
X013328Y007528D01*
X013380Y007512D01*
X013433Y007500D01*
X013487Y007491D01*
X013541Y007485D01*
X013595Y007483D01*
X013595Y007492D01*
X013541Y007494D01*
X013488Y007500D01*
X013435Y007509D01*
X013383Y007521D01*
X013331Y007537D01*
X013281Y007556D01*
X013232Y007578D01*
X013185Y007604D01*
X013139Y007632D01*
X013096Y007664D01*
X013054Y007698D01*
X013015Y007734D01*
X012978Y007774D01*
X012944Y007815D01*
X012913Y007859D01*
X012884Y007904D01*
X012892Y007909D01*
X012922Y007861D01*
X012956Y007815D01*
X012992Y007772D01*
X013032Y007731D01*
X013074Y007693D01*
X013118Y007658D01*
X013165Y007626D01*
X013214Y007598D01*
X013265Y007573D01*
X013318Y007551D01*
X013371Y007534D01*
X013426Y007520D01*
X013482Y007510D01*
X013538Y007503D01*
X013595Y007501D01*
X013595Y007510D01*
X013539Y007512D01*
X013483Y007518D01*
X013428Y007528D01*
X013374Y007542D01*
X013321Y007560D01*
X013269Y007581D01*
X013218Y007606D01*
X013170Y007634D01*
X013124Y007665D01*
X013079Y007700D01*
X013038Y007737D01*
X012999Y007778D01*
X012963Y007820D01*
X012930Y007866D01*
X012900Y007913D01*
X012908Y007918D01*
X012937Y007871D01*
X012970Y007826D01*
X013006Y007784D01*
X013044Y007744D01*
X013085Y007707D01*
X013129Y007672D01*
X013175Y007641D01*
X013223Y007614D01*
X013272Y007589D01*
X013324Y007568D01*
X013376Y007551D01*
X013430Y007537D01*
X013485Y007527D01*
X013540Y007521D01*
X013595Y007519D01*
X013595Y007528D01*
X013540Y007530D01*
X013486Y007536D01*
X013432Y007546D01*
X013379Y007560D01*
X013327Y007577D01*
X013276Y007597D01*
X013227Y007622D01*
X013180Y007649D01*
X013134Y007680D01*
X013091Y007713D01*
X013050Y007750D01*
X013012Y007790D01*
X012977Y007832D01*
X012945Y007876D01*
X012916Y007922D01*
X012924Y007927D01*
X012952Y007881D01*
X012984Y007837D01*
X013019Y007796D01*
X013057Y007757D01*
X013097Y007720D01*
X013139Y007687D01*
X013184Y007657D01*
X013231Y007629D01*
X013280Y007606D01*
X013330Y007585D01*
X013381Y007568D01*
X013434Y007555D01*
X013487Y007545D01*
X013541Y007539D01*
X013595Y007537D01*
X013595Y007546D01*
X013542Y007548D01*
X013488Y007554D01*
X013436Y007564D01*
X013384Y007577D01*
X013333Y007594D01*
X013283Y007614D01*
X013235Y007637D01*
X013189Y007664D01*
X013145Y007694D01*
X013103Y007727D01*
X013063Y007763D01*
X013026Y007802D01*
X012991Y007843D01*
X012960Y007886D01*
X012931Y007931D01*
X012939Y007936D01*
X012967Y007891D01*
X012998Y007848D01*
X013032Y007808D01*
X013069Y007770D01*
X013108Y007734D01*
X013150Y007702D01*
X013194Y007672D01*
X013240Y007645D01*
X013287Y007622D01*
X013336Y007602D01*
X013386Y007585D01*
X013438Y007572D01*
X013490Y007563D01*
X013542Y007557D01*
X013595Y007555D01*
X013604Y007475D02*
X013604Y007565D01*
X013605Y007564D02*
X013659Y007566D01*
X013712Y007572D01*
X013765Y007582D01*
X013817Y007596D01*
X013868Y007613D01*
X013918Y007634D01*
X013966Y007658D01*
X014012Y007686D01*
X014056Y007717D01*
X014097Y007751D01*
X014137Y007788D01*
X014173Y007827D01*
X014241Y007770D01*
X014242Y007769D01*
X014204Y007728D01*
X014164Y007690D01*
X014121Y007654D01*
X014076Y007621D01*
X014029Y007591D01*
X013981Y007565D01*
X013930Y007541D01*
X013878Y007521D01*
X013825Y007505D01*
X013771Y007491D01*
X013716Y007482D01*
X013661Y007476D01*
X013605Y007474D01*
X013605Y007483D01*
X013660Y007485D01*
X013715Y007491D01*
X013769Y007500D01*
X013823Y007513D01*
X013875Y007530D01*
X013927Y007549D01*
X013977Y007573D01*
X014025Y007599D01*
X014071Y007629D01*
X014116Y007661D01*
X014158Y007696D01*
X014198Y007735D01*
X014235Y007775D01*
X014228Y007781D01*
X014191Y007741D01*
X014152Y007703D01*
X014110Y007668D01*
X014066Y007636D01*
X014020Y007607D01*
X013972Y007581D01*
X013923Y007558D01*
X013872Y007538D01*
X013820Y007522D01*
X013767Y007509D01*
X013714Y007500D01*
X013659Y007494D01*
X013605Y007492D01*
X013605Y007501D01*
X013659Y007503D01*
X013712Y007509D01*
X013765Y007518D01*
X013818Y007531D01*
X013869Y007547D01*
X013920Y007566D01*
X013968Y007589D01*
X014016Y007614D01*
X014061Y007643D01*
X014105Y007675D01*
X014146Y007710D01*
X014185Y007747D01*
X014221Y007787D01*
X014214Y007793D01*
X014178Y007753D01*
X014140Y007716D01*
X014099Y007682D01*
X014056Y007651D01*
X014011Y007622D01*
X013964Y007597D01*
X013916Y007574D01*
X013866Y007555D01*
X013815Y007539D01*
X013764Y007527D01*
X013711Y007518D01*
X013658Y007512D01*
X013605Y007510D01*
X013605Y007519D01*
X013658Y007521D01*
X013710Y007527D01*
X013762Y007536D01*
X013813Y007548D01*
X013863Y007564D01*
X013913Y007583D01*
X013960Y007605D01*
X014007Y007630D01*
X014051Y007658D01*
X014093Y007689D01*
X014134Y007723D01*
X014172Y007760D01*
X014207Y007798D01*
X014201Y007804D01*
X014165Y007766D01*
X014128Y007730D01*
X014088Y007696D01*
X014046Y007666D01*
X014002Y007638D01*
X013956Y007613D01*
X013909Y007591D01*
X013860Y007572D01*
X013811Y007557D01*
X013760Y007544D01*
X013709Y007536D01*
X013657Y007530D01*
X013605Y007528D01*
X013605Y007537D01*
X013661Y007539D01*
X013716Y007546D01*
X013771Y007556D01*
X013825Y007570D01*
X013878Y007588D01*
X013929Y007610D01*
X013979Y007635D01*
X014027Y007664D01*
X014072Y007696D01*
X014115Y007731D01*
X014156Y007769D01*
X014194Y007810D01*
X014187Y007816D01*
X014150Y007775D01*
X014109Y007738D01*
X014067Y007703D01*
X014022Y007671D01*
X013974Y007643D01*
X013925Y007618D01*
X013874Y007596D01*
X013822Y007579D01*
X013769Y007565D01*
X013715Y007555D01*
X013660Y007548D01*
X013605Y007546D01*
X013605Y007555D01*
X013659Y007557D01*
X013713Y007563D01*
X013767Y007573D01*
X013820Y007587D01*
X013871Y007605D01*
X013921Y007626D01*
X013970Y007651D01*
X014017Y007679D01*
X014061Y007710D01*
X014103Y007744D01*
X014143Y007782D01*
X014180Y007822D01*
X014245Y008863D02*
X014176Y008806D01*
X014177Y008806D02*
X014140Y008846D01*
X014101Y008884D01*
X014059Y008918D01*
X014015Y008950D01*
X013969Y008978D01*
X013920Y009003D01*
X013870Y009024D01*
X013819Y009042D01*
X013766Y009055D01*
X013713Y009065D01*
X013659Y009072D01*
X013605Y009074D01*
X013604Y009163D01*
X013605Y009164D01*
X013661Y009162D01*
X013717Y009156D01*
X013772Y009146D01*
X013827Y009133D01*
X013880Y009116D01*
X013933Y009096D01*
X013984Y009072D01*
X014033Y009045D01*
X014080Y009014D01*
X014125Y008981D01*
X014168Y008945D01*
X014208Y008906D01*
X014246Y008864D01*
X014239Y008858D01*
X014202Y008899D01*
X014162Y008938D01*
X014120Y008974D01*
X014075Y009007D01*
X014028Y009037D01*
X013980Y009064D01*
X013929Y009087D01*
X013877Y009108D01*
X013824Y009124D01*
X013770Y009137D01*
X013716Y009147D01*
X013661Y009153D01*
X013605Y009155D01*
X013605Y009146D01*
X013660Y009144D01*
X013715Y009138D01*
X013769Y009129D01*
X013822Y009116D01*
X013874Y009099D01*
X013926Y009079D01*
X013975Y009056D01*
X014024Y009029D01*
X014070Y009000D01*
X014114Y008967D01*
X014156Y008931D01*
X014195Y008893D01*
X014232Y008852D01*
X014225Y008847D01*
X014189Y008887D01*
X014150Y008925D01*
X014108Y008960D01*
X014065Y008992D01*
X014019Y009022D01*
X013971Y009048D01*
X013922Y009071D01*
X013872Y009091D01*
X013820Y009107D01*
X013767Y009120D01*
X013713Y009129D01*
X013659Y009135D01*
X013605Y009137D01*
X013605Y009128D01*
X013659Y009126D01*
X013712Y009120D01*
X013765Y009111D01*
X013817Y009098D01*
X013869Y009082D01*
X013919Y009063D01*
X013967Y009040D01*
X014014Y009014D01*
X014060Y008985D01*
X014103Y008953D01*
X014144Y008918D01*
X014182Y008881D01*
X014218Y008841D01*
X014211Y008835D01*
X014176Y008874D01*
X014138Y008911D01*
X014097Y008946D01*
X014054Y008977D01*
X014010Y009006D01*
X013963Y009032D01*
X013915Y009054D01*
X013866Y009074D01*
X013815Y009090D01*
X013763Y009102D01*
X013711Y009111D01*
X013658Y009117D01*
X013605Y009119D01*
X013605Y009110D01*
X013657Y009108D01*
X013710Y009102D01*
X013761Y009093D01*
X013812Y009081D01*
X013863Y009065D01*
X013912Y009046D01*
X013959Y009024D01*
X014005Y008998D01*
X014049Y008970D01*
X014091Y008939D01*
X014132Y008905D01*
X014169Y008868D01*
X014204Y008829D01*
X014198Y008823D01*
X014163Y008862D01*
X014125Y008898D01*
X014086Y008932D01*
X014044Y008963D01*
X014000Y008991D01*
X013955Y009016D01*
X013908Y009038D01*
X013860Y009057D01*
X013810Y009072D01*
X013760Y009085D01*
X013708Y009093D01*
X013657Y009099D01*
X013605Y009101D01*
X013605Y009092D01*
X013656Y009090D01*
X013707Y009085D01*
X013758Y009076D01*
X013808Y009064D01*
X013857Y009048D01*
X013904Y009030D01*
X013951Y009008D01*
X013996Y008983D01*
X014039Y008955D01*
X014080Y008925D01*
X014119Y008892D01*
X014156Y008856D01*
X014191Y008818D01*
X014184Y008812D01*
X014147Y008853D01*
X014107Y008891D01*
X014065Y008925D01*
X014020Y008957D01*
X013973Y008986D01*
X013924Y009011D01*
X013873Y009032D01*
X013822Y009050D01*
X013768Y009064D01*
X013714Y009074D01*
X013660Y009081D01*
X013605Y009083D01*
X017945Y004021D02*
X018095Y004021D01*
X018095Y003971D02*
X018095Y004071D01*
X017995Y003971D02*
X017945Y004021D01*
X017970Y003924D02*
X017945Y003899D01*
X017945Y003824D01*
X018095Y003824D01*
X018095Y003899D01*
X018070Y003924D01*
X017970Y003924D01*
D17*
X014220Y007809D02*
X014220Y007989D01*
X014220Y008629D02*
X014220Y008829D01*
D18*
X018600Y005919D02*
X018600Y005819D01*
X018900Y005819D01*
X018900Y003819D01*
X018600Y003819D01*
X018600Y003719D01*
X018600Y003819D02*
X018300Y003819D01*
X018300Y005819D01*
X018600Y005819D01*
X018350Y005569D02*
X018850Y005569D01*
X028777Y010496D02*
X028777Y015141D01*
X033423Y015141D01*
X033423Y010496D01*
X029860Y010496D01*
X033777Y010496D02*
X033777Y015141D01*
X038423Y015141D01*
X038423Y010496D01*
X034860Y010496D01*
X034958Y015181D02*
X034958Y016519D01*
X037242Y016519D01*
X037242Y015181D01*
X032242Y015181D02*
X032242Y016519D01*
X029958Y016519D01*
X029958Y015181D01*
D19*
X018785Y005652D02*
X018785Y005555D01*
X018737Y005507D01*
X018688Y005507D01*
X018640Y005555D01*
X018640Y005652D01*
X018688Y005700D01*
X018737Y005700D01*
X018785Y005652D01*
X018640Y005652D02*
X018592Y005700D01*
X018543Y005700D01*
X018495Y005652D01*
X018495Y005555D01*
X018543Y005507D01*
X018592Y005507D01*
X018640Y005555D01*
X018640Y005406D02*
X018640Y005212D01*
X018495Y005357D01*
X018785Y005357D01*
X018785Y005111D02*
X018785Y004918D01*
X018785Y005014D02*
X018495Y005014D01*
X018592Y004918D01*
X018640Y004816D02*
X018640Y004623D01*
X018495Y004768D01*
X018785Y004768D01*
X018785Y004522D02*
X018495Y004522D01*
X018495Y004328D02*
X018785Y004522D01*
X018785Y004328D02*
X018495Y004328D01*
X018495Y004130D02*
X018785Y004130D01*
X018785Y004034D02*
X018785Y004227D01*
X018592Y004034D02*
X018495Y004130D01*
D20*
X016750Y014544D03*
X024450Y014544D03*
D21*
X025530Y013494D03*
X015670Y013494D03*
D22*
X020600Y013669D03*
X006600Y013669D03*
D23*
X006600Y015319D03*
X020600Y015319D03*
D24*
X020600Y012094D03*
X019520Y012094D03*
X018440Y012094D03*
X021680Y012094D03*
X022760Y012094D03*
X008760Y012094D03*
X007680Y012094D03*
X006590Y012094D03*
X005520Y012094D03*
X004440Y012094D03*
D25*
X004980Y012594D03*
X006060Y012594D03*
X007130Y012594D03*
X008220Y012594D03*
X018980Y012594D03*
X020060Y012594D03*
X021140Y012594D03*
X022220Y012594D03*
D26*
X015911Y012404D02*
X015490Y012404D01*
X015911Y012824D01*
X015911Y012929D01*
X015806Y013034D01*
X015596Y013034D01*
X015490Y012929D01*
X015266Y013034D02*
X014846Y012404D01*
X015266Y012404D02*
X014846Y013034D01*
X002200Y012354D02*
X001780Y012354D01*
X001990Y012354D02*
X001990Y012984D01*
X001780Y012774D01*
X001555Y012984D02*
X001135Y012354D01*
X001555Y012354D02*
X001135Y012984D01*
D27*
X010800Y004939D02*
X011100Y004939D01*
X011400Y004939D01*
X011400Y004689D02*
X011100Y004689D01*
X010800Y004689D01*
M02*
