%
M48
M72
T01C0.0315
T02C0.0320
T03C0.0354
T04C0.0400
T05C0.0630
T06C0.0787
T07C0.1300
%
T01
X33600Y8319
X32600Y8319
X31600Y8319
X26600Y7319
X27600Y7319
X28600Y7319
T02
X24100Y3319
X24850Y3819
X24100Y4319
X28100Y3319
X28850Y3819
X28100Y4319
X32600Y3319
X33350Y3819
X32600Y4319
X25600Y5319
X29600Y5319
X30600Y7319
X34600Y7319
X25600Y6319
X29600Y6319
X34600Y6319
X30600Y6319
X16600Y3319
X16600Y7319
X17600Y4319
X17600Y8319
X13100Y8319
X14100Y8319
X30600Y5319
X34600Y5319
X11100Y5819
X11100Y3819
T03
X18600Y3319
X18600Y6319
T04
X20600Y8319
X21600Y8319
X20600Y7319
X21600Y7319
X13100Y6319
X13100Y5319
X13100Y4319
X13100Y3319
X18440Y10319
X19520Y10319
X20600Y10319
X21680Y10319
X22760Y10319
X18980Y11319
X20060Y11319
X21140Y11319
X22220Y11319
X4440Y10319
X5520Y10319
X6600Y10319
X7680Y10319
X8760Y10319
X4980Y11319
X6060Y11319
X7140Y11319
X8220Y11319
X21600Y4319
X20600Y4319
X21600Y5319
X20600Y5319
T05
X29328Y10535
X32872Y11047
X34328Y10535
X37872Y11047
T06
X30234Y14197
X30155Y11441
X35234Y14197
X35155Y11441
T07
X25530Y10819
X15670Y10819
X1670Y10819
X11530Y10819
M30
