G75*
%MOIN*%
%OFA0B0*%
%FSLAX24Y24*%
%IPPOS*%
%LPD*%
%AMOC8*
5,1,8,0,0,1.08239X$1,22.5*
%
%ADD10C,0.0000*%
%ADD11OC8,0.0520*%
%ADD12OC8,0.0515*%
%ADD13C,0.0740*%
%ADD14OC8,0.0600*%
%ADD15C,0.0600*%
%ADD16C,0.2000*%
%ADD17C,0.1181*%
%ADD18C,0.1000*%
%ADD19C,0.0200*%
%ADD20C,0.0300*%
D10*
X000100Y001819D02*
X000100Y015315D01*
X039120Y015315D01*
X039120Y001819D01*
X000100Y001819D01*
D11*
X011100Y003819D03*
X011100Y005819D03*
X016600Y007319D03*
X017600Y008319D03*
X025600Y006319D03*
X025600Y005319D03*
X024100Y004319D03*
X024850Y003819D03*
X024100Y003319D03*
X028100Y003319D03*
X028850Y003819D03*
X028100Y004319D03*
X029600Y005319D03*
X030600Y005319D03*
X030600Y006319D03*
X029600Y006319D03*
X030600Y007319D03*
X034600Y007319D03*
X034600Y006319D03*
X034600Y005319D03*
X032600Y004319D03*
X033350Y003819D03*
X032600Y003319D03*
X017600Y004319D03*
X016600Y003319D03*
D12*
X026600Y007319D03*
X027600Y007319D03*
X028600Y007319D03*
X031600Y008319D03*
X032600Y008319D03*
X033600Y008319D03*
D13*
X018600Y006319D03*
X014100Y008319D03*
X013100Y008319D03*
X018600Y003319D03*
D14*
X020600Y004319D03*
X021600Y004319D03*
X021600Y005319D03*
X020600Y005319D03*
X020600Y007319D03*
X021600Y007319D03*
X021600Y008319D03*
X020600Y008319D03*
X020600Y010319D03*
X019520Y010319D03*
X018440Y010319D03*
X018980Y011319D03*
X020060Y011319D03*
X021140Y011319D03*
X022220Y011319D03*
X021680Y010319D03*
X022760Y010319D03*
X008760Y010319D03*
X007680Y010319D03*
X006600Y010319D03*
X005520Y010319D03*
X004440Y010319D03*
X004980Y011319D03*
X006060Y011319D03*
X007140Y011319D03*
X008220Y011319D03*
D15*
X012800Y006319D02*
X013400Y006319D01*
X013400Y005319D02*
X012800Y005319D01*
X012800Y004319D02*
X013400Y004319D01*
X013400Y003319D02*
X012800Y003319D01*
D16*
X011530Y010819D03*
X015670Y010819D03*
X025530Y010819D03*
X001670Y010819D03*
D17*
X030155Y011441D03*
X035155Y011441D03*
X035234Y014197D03*
X030234Y014197D03*
D18*
X032872Y011047D03*
X034328Y010535D03*
X037872Y011047D03*
X029328Y010535D03*
D19*
X029350Y010319D01*
X034100Y010319D01*
X034328Y010535D01*
X035155Y011441D02*
X035100Y011569D01*
X034850Y011819D01*
X030600Y011819D01*
X030350Y011569D01*
X030155Y011441D01*
X027850Y009069D02*
X013850Y009069D01*
X013100Y008319D01*
X016100Y007569D02*
X016350Y007819D01*
X020100Y007819D01*
X020600Y008319D01*
X019600Y009569D02*
X020100Y010069D01*
X020100Y011319D01*
X020060Y011319D01*
X021140Y011319D02*
X021350Y011319D01*
X021850Y010819D01*
X022850Y010819D01*
X022850Y011569D01*
X021850Y012569D01*
X004350Y012569D01*
X004350Y011069D01*
X004600Y010819D01*
X005350Y010819D01*
X005850Y011319D01*
X006060Y011319D01*
X005850Y012069D02*
X005100Y011319D01*
X004980Y011319D01*
X005850Y012069D02*
X021350Y012069D01*
X022100Y011319D01*
X022220Y011319D01*
X019600Y009569D02*
X007100Y009569D01*
X007100Y011319D01*
X007140Y011319D01*
X005600Y010319D02*
X005520Y010319D01*
X005600Y010319D02*
X008350Y007569D01*
X016100Y007569D01*
X016600Y007319D02*
X017600Y006319D01*
X018600Y006319D01*
X025600Y006319D01*
X025600Y005319D02*
X027850Y005319D01*
X028850Y004319D01*
X028850Y003819D01*
X028100Y004319D02*
X027600Y004819D01*
X022100Y004819D01*
X021600Y005319D01*
X020600Y004319D02*
X017600Y004319D01*
X013100Y006319D02*
X011600Y006319D01*
X011100Y005819D01*
X027850Y009069D02*
X030600Y006319D01*
X030600Y007319D02*
X032600Y005319D01*
X034600Y005319D01*
X032600Y004319D02*
X030600Y004319D01*
X029600Y005319D01*
X032600Y007319D02*
X031600Y008319D01*
X032600Y007319D02*
X034600Y007319D01*
X033600Y008319D02*
X034100Y008819D01*
X035850Y008819D01*
X037850Y010819D01*
X037872Y011047D01*
D20*
X030234Y014197D02*
X030100Y014069D01*
X028850Y014069D01*
X025600Y010819D01*
X025530Y010819D01*
X018440Y010319D02*
X018350Y010319D01*
X017850Y010819D01*
X015670Y010819D01*
X011530Y010819D02*
X009350Y010819D01*
X008850Y010319D01*
X008760Y010319D01*
X008850Y003819D02*
X001850Y010819D01*
X001670Y010819D01*
X008850Y003819D02*
X011100Y003819D01*
X011600Y003319D01*
X013100Y003319D01*
X018600Y003319D02*
X024100Y003319D01*
X024350Y003069D01*
X027850Y003069D01*
X028100Y003319D01*
M02*
